# xmcd
#
# Track frame offsets:
#	182
#	18697
#	38982
#	59882
#	76532
#	94597
#	105632
#	120192
#	141250
#	167437
#	191357
#	207887
#	211550
#	232807
#	250245
#	275790
#	291657
#	312857
#
# Disc length: 4438 seconds
#
# Revision: 0
# Processed by: cddbd v1.5.1PL0 Copyright (c) Steve Scherf et al.
# Submitted via: dBpowerAMP V4.0
#
DISCID=f8115412
DTITLE=Feinkost Paranoia - Biofeedback (Special Edition)
DYEAR=1999
DGENRE=Rap
TTITLE0=Strike 9
TTITLE1=O
TTITLE2=Freaks and Fraggles
TTITLE3=Breit Life
TTITLE4=Neptun Harpoon Cypha Session
TTITLE5=It's A Demo
TTITLE6=Ich Bin's
TTITLE7=Rode Rap
TTITLE8=Radio Casablanca
TTITLE9=Ruck and Rumble Ft. Junior and Chameleon
TTITLE10=Supacityslickers Ft. Doom Metal Monster
TTITLE11=Sings Noch Mal Schatzi
TTITLE12=Bück Dich Ft. Chameleon
TTITLE13=Finstar Symphonie (Bleck)
TTITLE14=Biofeedback
TTITLE15=Tell U Sum Ting
TTITLE16=Seltene Exemplare
TTITLE17=Freaks and Fraggles (Video Mix)
EXTD=
EXTT0=
EXTT1=
EXTT2=
EXTT3=
EXTT4=
EXTT5=
EXTT6=
EXTT7=
EXTT8=
EXTT9=
EXTT10=
EXTT11=
EXTT12=
EXTT13=
EXTT14=
EXTT15=
EXTT16=
EXTT17=
PLAYORDER=
